<svg preserveAspectRatio="none" width="100%" height="100%" overflow="visible" style="display: block;" viewBox="0 0 48.5334 48" fill="none" xmlns="http://www.w3.org/2000/svg">
<path d="M24.3334 48C20.9111 48 17.7111 47.3821 14.7333 46.1462C11.8 44.9103 9.22222 43.2111 7 41.0483C4.82222 38.8414 3.11112 36.2814 1.86667 33.3683C0.622222 30.411 0 27.2552 0 23.9007C0 20.5462 0.600001 17.4344 1.8 14.5655C3.04445 11.6524 4.75555 9.11449 6.93334 6.95172C9.15555 4.74483 11.7333 3.04552 14.6667 1.85379C17.6001 0.617931 20.7777 0 24.2001 0C27.6667 0 30.8667 0.617931 33.8001 1.85379C36.7334 3.04552 39.2889 4.74483 41.4667 6.95172C43.6889 9.11449 45.4222 11.6524 46.6667 14.5655C47.9111 17.4786 48.5334 20.6124 48.5334 23.9669C48.5334 27.3214 47.9111 30.4552 46.6667 33.3683C45.4222 36.2814 43.6889 38.8414 41.4667 41.0483C39.2889 43.2111 36.7334 44.9103 33.8001 46.1462C30.9111 47.3821 27.7556 48 24.3334 48ZM24.2001 39.5917C27.2222 39.5917 29.8444 38.9297 32.0667 37.6055C34.2889 36.2814 36.0222 34.4496 37.2667 32.1103C38.5556 29.7711 39.2001 27.0344 39.2001 23.9007C39.2001 21.6055 38.8444 19.509 38.1334 17.611C37.4222 15.7131 36.4001 14.08 35.0667 12.7117C33.7334 11.2993 32.1556 10.2179 30.3334 9.46759C28.5111 8.71725 26.4667 8.34207 24.2001 8.34207C21.2667 8.34207 18.6667 9.00414 16.4 10.3283C14.1778 11.6083 12.4222 13.4179 11.1333 15.7572C9.88889 18.0965 9.26667 20.811 9.26667 23.9007C9.26667 26.2399 9.62222 28.3807 10.3333 30.3228C11.0889 32.2648 12.1111 33.9199 13.4 35.2883C14.7333 36.6566 16.3111 37.7159 18.1334 38.4662C20.0001 39.2165 22.0222 39.5917 24.2001 39.5917Z" fill="white" fill-opacity="0.89"/>
</svg>
